<?xml version="1.0" encoding="UTF-8" standalone="no"?><!DOCTYPE svg PUBLIC "-//W3C//DTD SVG 1.1//EN" "http://www.w3.org/Graphics/SVG/1.1/DTD/svg11.dtd"><svg width="100%" height="100%" viewBox="0 0 513 513" version="1.1" xmlns="http://www.w3.org/2000/svg" xmlns:xlink="http://www.w3.org/1999/xlink" xml:space="preserve" xmlns:serif="http://www.serif.com/" style="fill-rule:evenodd;clip-rule:evenodd;stroke-linejoin:round;stroke-miterlimit:2;"><circle cx="256.001" cy="256" r="256" style="fill:#4376b1;"/><path d="M511.016,233.634l-116.287,-116.436c-71.035,9.237 -145.27,7.859 -216.305,9.511c-29.306,0 -58.613,13.791 -53.441,46.545c10.343,65.508 15.515,129.293 3.448,196.525c-1.9,8.545 -5.897,17.089 -11.117,25.059l116.166,116.167c7.421,0.646 14.929,0.996 22.519,0.996c141.384,0 256,-114.616 256,-256c0.002,-7.54 -0.343,-14.996 -0.983,-22.367Z" style="fill:#369;fill-rule:nonzero;"/><path d="M376.023,109.468l-240.044,0c-14.643,0 -26.51,11.867 -26.51,26.51l0,240.042c0,14.639 11.867,26.51 26.51,26.51l240.042,0c14.639,0 26.51,-11.871 26.51,-26.51l0,-240.042c0.002,-14.643 -11.869,-26.51 -26.508,-26.51Zm-175.868,253.049c0,4.263 -3.453,7.716 -7.716,7.716l-32.837,0c-4.263,0 -7.716,-3.455 -7.716,-7.716l0,-137.661c0,-4.263 3.455,-7.716 7.716,-7.716l32.839,0c4.263,0 7.716,3.455 7.716,7.716l0,137.661l-0.002,0Zm-24.135,-158.355c-17.23,0 -31.196,-13.969 -31.196,-31.201c0,-17.229 13.965,-31.196 31.196,-31.196c17.232,0 31.198,13.969 31.198,31.196c0,17.234 -13.967,31.201 -31.198,31.201Zm195.753,158.977c0,3.918 -3.175,7.096 -7.09,7.096l-35.242,0c-3.915,0 -7.092,-3.177 -7.092,-7.096l0,-64.574c0,-9.63 2.826,-42.21 -25.172,-42.21c-21.719,0 -26.124,22.3 -27.008,32.304l0,74.478c0,3.918 -3.175,7.096 -7.094,7.096l-34.082,0c-3.918,0 -7.096,-3.177 -7.096,-7.096l0,-138.903c0,-3.918 3.177,-7.096 7.096,-7.096l34.082,0c3.918,0 7.094,3.177 7.094,7.096l0,12.009c8.054,-12.085 20.023,-21.416 45.502,-21.416c56.425,0 56.105,52.717 56.105,81.686l0,66.627l-0.003,0l0,-0.001Z" style="fill:#fff;fill-rule:nonzero;"/><path d="M376.023,109.468l-120.596,0l0,107.67l7.647,0c3.918,0 7.094,3.177 7.094,7.096l0,12.009c8.054,-12.085 20.023,-21.416 45.503,-21.416c56.425,0 56.105,52.717 56.105,81.686l0,66.625c0,3.918 -3.175,7.096 -7.09,7.096l-35.242,0c-3.915,0 -7.092,-3.177 -7.092,-7.096l0,-64.574c0,-9.63 2.826,-42.21 -25.172,-42.21c-21.719,0 -26.124,22.3 -27.008,32.304l0,74.478c0,3.918 -3.175,7.096 -7.094,7.096l-7.647,0l0,32.301l120.596,0c14.639,0 26.51,-11.871 26.51,-26.51l0,-240.045c-0.004,-14.643 -11.875,-26.51 -26.514,-26.51Z" style="fill:#d1d1d1;fill-rule:nonzero;"/></svg>