<?xml version="1.0" encoding="UTF-8" standalone="no"?><!DOCTYPE svg PUBLIC "-//W3C//DTD SVG 1.1//EN" "http://www.w3.org/Graphics/SVG/1.1/DTD/svg11.dtd"><svg width="100%" height="100%" viewBox="0 0 510 510" version="1.1" xmlns="http://www.w3.org/2000/svg" xmlns:xlink="http://www.w3.org/1999/xlink" xml:space="preserve" xmlns:serif="http://www.serif.com/" style="fill-rule:evenodd;clip-rule:evenodd;stroke-linejoin:round;stroke-miterlimit:2;"><g><path d="M169.318,120.672l26.368,53.44l58.976,8.576l-42.672,41.6l10.064,58.736l-52.736,-27.744l-52.752,27.744l10.064,-58.736l-42.672,-41.6l58.976,-8.576l26.384,-53.44Z" style="fill:#ffd83b;fill-rule:nonzero;"/><path d="M91.222,62.912l13.68,27.696l30.56,4.448l-22.112,21.568l5.216,30.432l-27.344,-14.368l-27.328,14.368l5.216,-30.432l-22.112,-21.568l30.56,-4.448l13.664,-27.696Z" style="fill:#ffd83b;fill-rule:nonzero;"/></g><path d="M280.022,1.2l0,66.48c0,1.168 0.896,2.112 2,2.112c1.104,0 2,-0.944 2,-2.112l0,-66.48l-4,0Z" style="fill:#2f3133;fill-rule:nonzero;"/><path d="M166.646,399.296c124.528,-20.88 208.56,-138.752 187.68,-263.296c-9.248,-55.168 -37.6,-102.336 -77.072,-136c107.12,15.584 196.704,98.464 215.568,210.96c23.376,139.44 -70.704,271.424 -210.144,294.8c-112.496,18.864 -220.048,-38.784 -269.728,-134.976c44.688,26.352 98.512,37.76 153.696,28.512Z" style="fill:#ffd83b;fill-rule:nonzero;"/><path d="M487.062,185.12l-129.92,0c0.16,-2.08 0.16,-4 0.16,-6.08c0.16,-2.4 0.16,-4.8 0.16,-7.2c0,-11.84 -1.12,-23.68 -3.04,-35.84c-0.16,-0.8 -0.32,-1.6 -0.48,-2.4c-0.16,-1.12 -0.32,-2.08 -0.64,-3.2c-4.32,-23.04 -12.16,-44.64 -22.72,-64.32c-0.16,-0.16 -0.16,-0.48 -0.32,-0.64c-13.6,-25.12 -31.68,-47.2 -52.96,-65.44c7.68,1.12 15.36,2.56 22.88,4.48c8,1.76 15.52,4.16 23.2,6.88l0.16,0c23.52,8 45.6,19.36 65.6,33.76c4.64,3.2 8.96,6.56 13.28,10.24l0.16,0c12.32,10.08 23.52,21.12 33.76,33.28c0.16,0.16 0.32,0.48 0.48,0.64l0,0.16c20,23.84 35.68,51.36 46.08,82.08c0.8,2.4 1.6,4.8 2.24,7.2c0.656,2.08 1.28,4.32 1.92,6.4Z" style="fill:#6dafdf;fill-rule:nonzero;"/><g><path d="M323.718,24.32l-10.24,-5.44l-10.08,5.44l1.92,-11.36l-8.32,-8l3.2,-0.48c8,1.76 15.52,4.16 23.2,6.88l-1.6,1.6l1.92,11.36Z" style="fill:#4d98d2;fill-rule:nonzero;"/><path d="M340.374,34.896l5.104,10.336l11.392,1.648l-8.24,8.032l1.936,11.36l-10.192,-5.36l-10.192,5.36l1.952,-11.36l-8.24,-8.032l11.392,-1.648l5.088,-10.336Z" style="fill:#4d98d2;fill-rule:nonzero;"/><path d="M404.342,66.24l-10.24,-5.28l-10.24,5.28l2.08,-11.36l-8.32,-8l11.36,-1.6l0.16,-0.16c4.64,3.2 8.96,6.56 13.28,10.24l0.16,0l1.76,10.88Z" style="fill:#4d98d2;fill-rule:nonzero;"/><path d="M367.254,76.864l5.104,10.32l11.392,1.664l-8.256,8.032l1.952,11.36l-10.192,-5.36l-10.192,5.36l1.952,-11.36l-8.256,-8.032l11.408,-1.664l5.088,-10.32Z" style="fill:#4d98d2;fill-rule:nonzero;"/><path d="M420.998,76.864l5.104,10.32l11.392,1.664l-8.24,8.032l1.936,11.36l-10.192,-5.36l-10.192,5.36l1.952,-11.36l-8.24,-8.032l11.392,-1.664l5.088,-10.32Z" style="fill:#4d98d2;fill-rule:nonzero;"/><path d="M394.134,118.832l5.088,10.32l11.392,1.664l-8.24,8.032l1.952,11.344l-10.192,-5.36l-10.192,5.36l1.936,-11.344l-8.24,-8.032l11.392,-1.664l5.104,-10.32Z" style="fill:#4d98d2;fill-rule:nonzero;"/><path d="M447.878,118.832l5.088,10.32l11.408,1.664l-8.256,8.032l1.952,11.344l-10.192,-5.36l-10.192,5.36l1.952,-11.344l-8.256,-8.032l11.392,-1.664l5.104,-10.32Z" style="fill:#4d98d2;fill-rule:nonzero;"/><path d="M375.542,180.8l0.8,4.32l-18.08,0l0.8,-4.32l-1.76,-1.76c0.16,-2.4 0.16,-4.8 0.16,-7.2l4.64,-0.8l5.12,-10.24l5.12,10.24l11.36,1.76l-8.16,8Z" style="fill:#4d98d2;fill-rule:nonzero;"/><path d="M429.302,180.8l0.8,4.32l-18.08,0l0.816,-4.32l-8.336,-8l11.376,-1.76l5.104,-10.24l5.12,10.24l11.36,1.76l-8.16,8Z" style="fill:#4d98d2;fill-rule:nonzero;"/><path d="M483.062,180.8l0.8,4.32l-18.24,0l0.8,-4.32l-8.16,-8l11.36,-1.76l5.12,-10.24l5.12,10.24l3.04,0.48c0.8,2.4 1.6,4.8 2.24,7.2l-2.08,2.08Z" style="fill:#4d98d2;fill-rule:nonzero;"/></g><path d="M363.142,28.976c40.96,37.248 70.304,87.856 80.176,146.72c23.376,139.44 -70.704,271.424 -210.144,294.8c-58.848,9.872 -116.272,-1.36 -164.848,-27.936c56.048,50.912 133.872,76.72 214.336,63.232c139.44,-23.376 233.52,-155.36 210.144,-294.8c-13.472,-80.496 -63.248,-145.648 -129.664,-182.016Z" style="fill:#2f3133;fill-opacity:0.05;fill-rule:nonzero;"/><path d="M479.43,163.616c-6.752,0 -12.464,4.016 -15.2,9.728c-2.736,-5.712 -8.448,-9.728 -15.2,-9.728c-6.752,0 -12.464,4.016 -15.2,9.728c-2.736,-5.712 -8.448,-9.728 -15.2,-9.728c-6.752,0 -12.464,4.016 -15.2,9.728c-2.736,-5.712 -8.448,-9.728 -15.2,-9.728c-6.752,0 -12.464,4.016 -15.2,9.728c-2.736,-5.712 -8.448,-9.728 -15.2,-9.728c-9.36,0 -16.96,7.584 -16.96,16.96c0,9.36 7.584,16.96 16.96,16.96c6.752,0 12.464,-4.016 15.2,-9.728c2.736,5.712 8.448,9.728 15.2,9.728c6.752,0 12.464,-4.016 15.2,-9.728c2.736,5.712 8.448,9.728 15.2,9.728c6.752,0 12.464,-4.016 15.2,-9.728c2.736,5.712 8.448,9.728 15.2,9.728c6.752,0 12.464,-4.016 15.2,-9.728c2.736,5.712 8.448,9.728 15.2,9.728c9.36,0 16.96,-7.584 16.96,-16.96c0,-9.376 -7.6,-16.96 -16.96,-16.96Z" style="fill:#d03f3e;fill-rule:nonzero;"/><g><path d="M449.03,178.656c-6.624,0 -12.224,3.904 -15.008,9.44c2.784,5.536 8.384,9.44 15.008,9.44c6.624,0 12.224,-3.888 15.008,-9.44c-2.784,-5.552 -8.384,-9.44 -15.008,-9.44Z" style="fill:#e14b4b;fill-rule:nonzero;"/><path d="M479.43,178.656c-6.624,0 -12.224,3.904 -15.008,9.44c2.784,5.536 8.384,9.44 15.008,9.44c6.624,0 12.208,-3.904 15.008,-9.44c-2.8,-5.552 -8.384,-9.44 -15.008,-9.44Z" style="fill:#e14b4b;fill-rule:nonzero;"/><path d="M418.646,178.656c-6.624,0 -12.224,3.904 -15.008,9.44c2.784,5.536 8.384,9.44 15.008,9.44c6.624,0 12.224,-3.888 15.008,-9.44c-2.784,-5.552 -8.384,-9.44 -15.008,-9.44Z" style="fill:#e14b4b;fill-rule:nonzero;"/><path d="M357.846,178.656c-6.624,0 -12.208,3.904 -15.008,9.44c2.784,5.536 8.384,9.44 15.008,9.44c6.624,0 12.224,-3.888 15.008,-9.44c-2.784,-5.552 -8.384,-9.44 -15.008,-9.44Z" style="fill:#e14b4b;fill-rule:nonzero;"/><path d="M388.246,178.656c-6.624,0 -12.224,3.888 -15.008,9.44c2.784,5.536 8.384,9.44 15.008,9.44c6.624,0 12.224,-3.888 15.008,-9.44c-2.784,-5.552 -8.384,-9.44 -15.008,-9.44Z" style="fill:#e14b4b;fill-rule:nonzero;"/><circle cx="282.358" cy="79.312" r="21.552" style="fill:#e14b4b;"/></g><path d="M349.334,332.48c0,10.384 -9.744,13.392 -19.344,13.216c-7.296,-0.128 -12.656,3.424 -20.176,3.424c-8.96,0 -17.12,-3.36 -23.36,-9.6c1.92,-1.76 3.52,-3.84 5.44,-5.76c2.24,2.192 4.864,3.888 7.712,5.072c10.368,4.288 22.192,-1.696 27.056,-11.808c2,-4.144 6.176,-6.544 10.688,-6.544c6.704,0 11.984,5.44 11.984,12Z" style="fill:#e8af2a;fill-rule:nonzero;"/><path d="M411.446,235.68c0,11.36 -9.12,20.48 -20.48,20.48c-11.2,0 -20.48,-9.12 -20.48,-20.48c0,-2.08 1.92,-4 4,-4c2.24,0 4,1.92 4,4c0,6.88 5.6,12.48 12.48,12.48c6.88,0 12.48,-5.6 12.48,-12.48c0,-2.08 1.76,-4 4,-4c2.24,0 4,1.92 4,4Z" style="fill:#5b5f63;fill-rule:nonzero;"/></svg>