<?xml version="1.0" encoding="UTF-8" standalone="no"?><!DOCTYPE svg PUBLIC "-//W3C//DTD SVG 1.1//EN" "http://www.w3.org/Graphics/SVG/1.1/DTD/svg11.dtd"><svg width="100%" height="100%" viewBox="0 0 512 512" version="1.1" xmlns="http://www.w3.org/2000/svg" xmlns:xlink="http://www.w3.org/1999/xlink" xml:space="preserve" xmlns:serif="http://www.serif.com/" style="fill-rule:evenodd;clip-rule:evenodd;stroke-linejoin:round;stroke-miterlimit:2;"><path d="M512,256c0,141.387 -114.613,256 -256,256c-141.387,0 -256,-114.613 -256,-256c0,-3.168 0.063,-6.32 0.176,-9.465c4.976,-137 117.605,-246.535 255.824,-246.535c138.219,0 250.848,109.535 255.824,246.535c0.113,3.145 0.176,6.297 0.176,9.465Z" style="fill:#96d6d4;fill-rule:nonzero;"/><path d="M424.953,168.953c0,13.359 -1.551,26.356 -4.484,38.824c-17.543,74.594 -84.516,130.129 -164.469,130.129c-79.953,0 -146.926,-55.535 -164.469,-130.129c-2.933,-12.468 -4.484,-25.468 -4.484,-38.824c0,-93.312 75.644,-168.953 168.953,-168.953c93.309,0 168.953,75.641 168.953,168.953Z" style="fill:#bdefec;fill-rule:nonzero;"/><path d="M364.684,186.332c0,8.59 -1,16.953 -2.883,24.973c-11.285,47.984 -54.367,83.707 -105.801,83.707c-51.43,0 -94.512,-35.723 -105.797,-83.707c-1.887,-8.02 -2.883,-16.383 -2.883,-24.973c0,-60.023 48.66,-108.684 108.684,-108.684c60.019,0 108.68,48.661 108.68,108.684Z" style="fill:#ffbb16;fill-rule:nonzero;"/><path d="M512,256c0,141.387 -114.613,256 -256,256c-141.387,0 -256,-114.613 -256,-256c0,-3.168 0.063,-6.32 0.176,-9.465l511.648,0c0.113,3.145 0.176,6.297 0.176,9.465Z" style="fill:#0084a6;fill-rule:nonzero;"/><path d="M283.949,426.914c4.086,27.918 99.184,6.375 99.184,28.84c0,22.465 -67.457,14.055 -65.141,31.074c0.766,5.59 8.977,9.352 19.656,11.879c-25.64,8.621 -53.101,13.293 -81.648,13.293c-49.871,0 -96.414,-14.262 -135.762,-38.934c20.164,-9.382 75.891,-2.621 75.891,-18.234c0,-19.059 -72.172,-0.668 -72.172,-21.773c0,-21.098 87.824,-9.539 90.551,-28.61c2.726,-19.058 -65.36,4.086 -68.766,-15.652c-3.406,-19.75 72.852,-9.539 72.852,-26.563c0,-17.019 -52.391,-2.515 -53.5,-15.843c-1.133,-13.618 52.14,-7.301 46.008,-24.321c-6.125,-17.023 -54.461,-1.871 -54.461,-19.574c0,-17.699 63.988,-5.621 63.988,-21.273c0,-15.66 -44.25,-3.828 -44.25,-17.442c0,-13.617 53.793,-15.922 79.621,-15.922c25.828,0 64.723,-0.652 64.723,14.332c0,14.973 -39.512,3.372 -39.512,15.625c0,12.258 59.926,2.719 59.926,16.344c0,13.613 -68.074,0 -68.074,19.059c0,19.058 86.464,3.187 86.464,24.285c0,21.105 -94.636,7.031 -90.55,30.183c4.086,23.145 131.398,-1.816 131.398,26.102c0,27.91 -120.508,5.215 -116.426,33.125Z" style="fill:#ffdd17;fill-rule:nonzero;"/><path d="M298.93,472.363c0,-4.793 -15.317,-8.679 -34.211,-8.679c-18.895,0 -34.211,3.886 -34.211,8.679c0,4.797 15.316,8.684 34.211,8.684c18.894,0 34.211,-3.887 34.211,-8.684Z" style="fill:#0084a6;fill-rule:nonzero;"/><path d="M259.129,342.613c0,-3.238 -10.356,-5.867 -23.133,-5.867c-12.777,0 -23.133,2.629 -23.133,5.867c0,3.242 10.356,5.871 23.133,5.871c12.777,0 23.133,-2.629 23.133,-5.871Z" style="fill:#0084a6;fill-rule:nonzero;"/><path d="M152.918,329c0,-3.242 -10.356,-5.871 -23.133,-5.871c-12.777,0 -23.133,2.629 -23.133,5.871c0,3.238 10.356,5.867 23.133,5.867c12.778,0 23.133,-2.629 23.133,-5.867Z" style="fill:#ffdd17;fill-rule:nonzero;"/><path d="M131.43,410.156c0,-5.121 -15.086,-9.273 -33.692,-9.273c-18.609,0 -33.695,4.152 -33.695,9.273c0,5.121 15.086,9.274 33.695,9.274c18.606,0 33.692,-4.153 33.692,-9.274Z" style="fill:#ffdd17;fill-rule:nonzero;"/><path d="M431,356.371c0,-5.121 -15.086,-9.273 -33.695,-9.273c-18.61,0 -33.696,4.152 -33.696,9.273c0,5.121 15.086,9.274 33.696,9.274c18.609,0 33.695,-4.153 33.695,-9.274Z" style="fill:#ffdd17;fill-rule:nonzero;"/><g><path d="M298.73,257.504c0,-1.817 -7.683,-3.289 -17.164,-3.289c-9.48,0 -17.168,1.472 -17.168,3.289c0,1.816 7.688,3.289 17.168,3.289c9.481,0 17.164,-1.473 17.164,-3.289Z" style="fill:#0084a6;fill-rule:nonzero;"/><path d="M261.461,270.328c0,-1.816 -7.688,-3.289 -17.168,-3.289c-9.481,0 -17.164,1.473 -17.164,3.289c0,1.817 7.683,3.289 17.164,3.289c9.48,0 17.168,-1.472 17.168,-3.289Z" style="fill:#0084a6;fill-rule:nonzero;"/><path d="M331.609,392.195c0,-3.242 -15.691,-5.867 -35.054,-5.867c-19.36,0 -35.055,2.625 -35.055,5.867c0,3.243 15.695,5.871 35.055,5.871c19.363,0 35.054,-2.628 35.054,-5.871Z" style="fill:#0084a6;fill-rule:nonzero;"/></g></svg>