<?xml version="1.0" encoding="UTF-8" standalone="no"?><!DOCTYPE svg PUBLIC "-//W3C//DTD SVG 1.1//EN" "http://www.w3.org/Graphics/SVG/1.1/DTD/svg11.dtd"><svg width="100%" height="100%" viewBox="0 0 240 240" version="1.1" xmlns="http://www.w3.org/2000/svg" xmlns:xlink="http://www.w3.org/1999/xlink" xml:space="preserve" xmlns:serif="http://www.serif.com/" style="fill-rule:evenodd;clip-rule:evenodd;stroke-linecap:round;stroke-linejoin:round;stroke-miterlimit:1.5;"><g><g><g><circle cx="120" cy="120" r="120" style="fill:#00c7ff;stroke:#00c7ff;stroke-width:0.48px;"/></g></g></g><g><g><g><circle cx="120" cy="120" r="120" style="fill:#b1d9e9;"/></g></g></g><g><path d="M182.354,118c6.319,-9.965 9.646,-21.27 9.646,-32.777c0,-36.18 -32.262,-65.554 -72,-65.554c-39.738,0 -72,29.374 -72,65.554c0,11.507 3.327,22.812 9.646,32.777l124.708,0Z" style="fill:#ff9800;"/><path d="M74.785,118l-74.785,0" style="fill:none;stroke:#00c9ff;stroke-width:1px;"/><path d="M0,118c-0.059,12.586 1.415,24.407 4.694,35.325c2.425,10.116 6.022,19.062 10.951,26.675c5.48,10.173 13.401,19.997 24.721,29.335l34.419,-91.335" style="fill:#00c9ff;stroke:#00c9ff;stroke-width:1px;"/><path d="M165.528,118l74.472,0c0.51,9.585 -0.305,19.169 -3.129,28.754c-1.341,5.966 -2.999,11.614 -5.007,16.914c-1.429,5.763 -4.311,11.236 -9.074,16.332c-1.567,5.293 -5.113,10.587 -10.013,15.88c-3.037,4.821 -7.439,9.301 -13.143,13.455l-34.106,-91.335Z" style="fill:#00c9ff;stroke:#00c9ff;stroke-width:1px;"/></g><g><path d="M76.35,120l-35.984,88.71l20.65,16.584l28.788,9.7l30.196,5.006l0,-120l-43.65,0Z" style="fill:#ffd700;stroke:#ffd700;stroke-width:4px;"/></g><g><path d="M163.65,120l35.984,88.71l-20.65,16.584l-28.788,9.7l-30.196,5.006l0,-120l43.65,0Z" style="fill:#ffd700;stroke:#ffd700;stroke-width:4px;"/></g><path d="M104.198,126.414l-30.978,0" style="fill:none;stroke:#00c7ff;stroke-width:6px;"/><path d="M88.71,136.114l-30.978,0" style="fill:none;stroke:#00c7ff;stroke-width:6px;"/><path d="M95.672,142.372l-30.978,0" style="fill:none;stroke:#00c7ff;stroke-width:6px;"/><path d="M71.342,205.268l-30.976,0" style="fill:none;stroke:#00c7ff;stroke-width:6px;"/><path d="M92.934,148.632l-30.978,0" style="fill:none;stroke:#00c7ff;stroke-width:6px;"/><path d="M88.71,154.576l-30.978,0" style="fill:none;stroke:#00c7ff;stroke-width:6px;"/><path d="M80.182,163.024l-30.978,0" style="fill:none;stroke:#00c7ff;stroke-width:6px;"/><path d="M71.342,171.16l-30.976,0" style="fill:none;stroke:#00c7ff;stroke-width:6px;"/><path d="M68.214,180l-30.978,0" style="fill:none;stroke:#00c7ff;stroke-width:6px;"/><path d="M68.214,187.196l-30.978,0" style="fill:none;stroke:#00c7ff;stroke-width:6px;"/><path d="M71.342,194.08l-30.976,0" style="fill:none;stroke:#00c7ff;stroke-width:6px;"/><path d="M156.454,172.724l30.978,0" style="fill:none;stroke:#00c7ff;stroke-width:6px;"/><path d="M171.942,182.426l30.978,0" style="fill:none;stroke:#00c7ff;stroke-width:6px;"/><path d="M164.98,188.684l30.978,0" style="fill:none;stroke:#00c7ff;stroke-width:6px;"/><path d="M155.084,165.216l30.978,0" style="fill:none;stroke:#00c7ff;stroke-width:6px;"/><path d="M167.718,194.942l30.978,0" style="fill:none;stroke:#00c7ff;stroke-width:6px;"/><path d="M171.942,200.886l30.978,0" style="fill:none;stroke:#00c7ff;stroke-width:6px;"/><path d="M139.048,122.972l30.978,0" style="fill:none;stroke:#00c7ff;stroke-width:6px;"/><path d="M147.888,131.108l30.978,0" style="fill:none;stroke:#00c7ff;stroke-width:6px;"/><path d="M151.016,139.948l30.978,0" style="fill:none;stroke:#00c7ff;stroke-width:6px;"/><path d="M151.016,147.144l30.978,0" style="fill:none;stroke:#00c7ff;stroke-width:6px;"/><path d="M155.084,154.028l30.978,0" style="fill:none;stroke:#00c7ff;stroke-width:6px;"/><ellipse cx="107.328" cy="190.404" rx="8.136" ry="1.72" style="fill:none;stroke:#00c7ff;stroke-width:6px;"/><ellipse cx="131.89" cy="151.916" rx="7.666" ry="2.972" style="fill:none;stroke:#00c7ff;stroke-width:6px;"/><ellipse cx="145.346" cy="215.124" rx="5.788" ry="2.66" style="fill:none;stroke:#00c7ff;stroke-width:6px;"/></svg>