<?xml version="1.0" encoding="UTF-8" standalone="no"?><!DOCTYPE svg PUBLIC "-//W3C//DTD SVG 1.1//EN" "http://www.w3.org/Graphics/SVG/1.1/DTD/svg11.dtd"><svg width="100%" height="100%" viewBox="0 0 120 120" version="1.1" xmlns="http://www.w3.org/2000/svg" xmlns:xlink="http://www.w3.org/1999/xlink" xml:space="preserve" xmlns:serif="http://www.serif.com/" style="fill-rule:evenodd;clip-rule:evenodd;stroke-linecap:round;stroke-linejoin:round;stroke-miterlimit:1.5;"><circle cx="60.866" cy="63.478" r="45.6" style="stroke:#000;stroke-width:0.5px;"/><path d="M56.554,107.561c26.524,1.061 51.194,-19.699 49.283,-45.677c-1.841,-25.027 -24.013,-44.126 -49.279,-42.277c13.293,6.501 29.794,23.015 29.855,42.651c0.06,19.636 -16.607,38.72 -29.859,45.303Z" style="fill:#ffd500;"/><path d="M60,37.236l2.266,6.486l7.331,0l-5.931,4.009l2.265,6.487l-5.931,-4.009l-5.931,4.009l2.265,-6.487l-5.931,-4.009l7.331,0l2.266,-6.486Z" style="fill:#ffd500;"/><path d="M46.46,60l0.93,3.027l3.013,0l-2.437,1.871l0.931,3.027l-2.437,-1.871l-2.437,1.871l0.93,-3.027l-2.437,-1.871l3.013,0l0.931,-3.027Z" style="fill:#ffd500;"/><ellipse cx="92.905" cy="55.818" rx="1.643" ry="1.6" style="fill:none;stroke:#fff;stroke-width:1px;"/><path d="M82.657,79.166c0,0 7.04,6.884 11.89,-0.626" style="fill:none;stroke:#fff;stroke-width:1px;"/><path d="M91.262,54.218l-1.252,-2.432" style="fill:none;stroke:#fff;stroke-width:1px;"/><path d="M92.905,54.218l0,-2.432" style="fill:none;stroke:#fff;stroke-width:1px;"/><path d="M94.547,54.218l1.408,-2.432" style="fill:none;stroke:#fff;stroke-width:1px;"/></svg>